<svg id="Capa_2" data-name="Capa 2" xmlns="http://www.w3.org/2000/svg" viewBox="0 0 792 255.96" class="logo"><defs><style>.cls-1{fill:#fff;}</style></defs><title>LogoDrupalBlanco</title><path class="cls-1" d="M127.55,1.21A127.38,127.38,0,1,0,254.93,128.59,127.38,127.38,0,0,0,127.55,1.21Zm65,148.42A65.22,65.22,0,1,1,62.17,147c1-50.19,54.31-68.57,67.31-103.4C148.1,82.89,197.57,103.32,192.59,149.63Z"/><path class="cls-1" d="M330.28,205.94a20.35,20.35,0,0,0-6.46-4.87,18.16,18.16,0,0,0-7.6-1.57,17.06,17.06,0,0,0-12.06,5.14,16.78,16.78,0,0,0-3.64,5.61,18.69,18.69,0,0,0-1.21,6.86,19.49,19.49,0,0,0,.72,5.43,15.67,15.67,0,0,0,2.16,4.56,17.61,17.61,0,0,0,6.25,5.55,17.57,17.57,0,0,0,15.52.28,19.57,19.57,0,0,0,6.32-5v6.67A24.09,24.09,0,0,1,316,239.22a21.75,21.75,0,0,1-6.52-1,22.36,22.36,0,0,1-5.95-2.91,21.47,21.47,0,0,1-9.5-18.15,23.48,23.48,0,0,1,1.63-8.88,21.54,21.54,0,0,1,5-7.26,21.82,21.82,0,0,1,7.16-4.66,23.25,23.25,0,0,1,8.58-1.55,22.68,22.68,0,0,1,7.1,1.12,25.57,25.57,0,0,1,6.78,3.45Z"/><path class="cls-1" d="M336.26,225a14.29,14.29,0,0,1,1.06-5.5,14,14,0,0,1,3.12-4.6,14.3,14.3,0,0,1,4.65-3.08,14.64,14.64,0,0,1,5.54-1.05,14.27,14.27,0,0,1,5.48,1.07,14.65,14.65,0,0,1,4.68,3.12,13.39,13.39,0,0,1,3.12,4.57A14.22,14.22,0,0,1,365,225a14,14,0,0,1-1.07,5.44,13.5,13.5,0,0,1-3.12,4.55,14.71,14.71,0,0,1-4.71,3.17,13.79,13.79,0,0,1-5.45,1.1,14.29,14.29,0,0,1-5.52-1.08,14.4,14.4,0,0,1-7.79-7.72A14,14,0,0,1,336.26,225Zm4.79,0a9.83,9.83,0,0,0,2.8,7.09,9.08,9.08,0,0,0,6.78,2.9,9,9,0,0,0,6.73-2.9,10.46,10.46,0,0,0,0-14.18,9.33,9.33,0,0,0-13.52,0A9.86,9.86,0,0,0,341.05,225Z"/><path class="cls-1" d="M372.25,238.1V193.35h4.62V238.1Z"/><path class="cls-1" d="M384.2,225a14.3,14.3,0,0,1,1.07-5.5,13.8,13.8,0,0,1,3.12-4.6,14.19,14.19,0,0,1,4.65-3.08,14.64,14.64,0,0,1,5.54-1.05,14.22,14.22,0,0,1,5.47,1.07,14.69,14.69,0,0,1,4.69,3.12,13.39,13.39,0,0,1,3.12,4.57,14.22,14.22,0,0,1,1.07,5.47,14,14,0,0,1-1.07,5.44,13.5,13.5,0,0,1-3.12,4.55,14.75,14.75,0,0,1-4.72,3.17,13.74,13.74,0,0,1-5.44,1.1,14.34,14.34,0,0,1-5.53-1.08,14.42,14.42,0,0,1-7.78-7.72A14,14,0,0,1,384.2,225Zm4.8,0a9.83,9.83,0,0,0,2.8,7.09,9.07,9.07,0,0,0,6.78,2.9,9,9,0,0,0,6.73-2.9,10.46,10.46,0,0,0,0-14.18,9,9,0,0,0-6.73-2.9,9.08,9.08,0,0,0-6.8,2.9A9.85,9.85,0,0,0,389,225Z"/><path class="cls-1" d="M456.75,238.1V222.54q0-4-1.62-6a6.08,6.08,0,0,0-5-2,7.72,7.72,0,0,0-3.36.73,7.19,7.19,0,0,0-2.61,2.1,6.67,6.67,0,0,0-1.13,2.42,21.12,21.12,0,0,0-.34,4.56V238.1h-4.36V222.54q0-4-1.62-6a6.08,6.08,0,0,0-5-2,7.93,7.93,0,0,0-3.4.73,7.28,7.28,0,0,0-2.64,2.1,6.48,6.48,0,0,0-1.08,2.33,22.2,22.2,0,0,0-.33,4.65V238.1H420V211.68h4.42v4.07a10.93,10.93,0,0,1,3.92-3.78,10.79,10.79,0,0,1,5.26-1.24A10.33,10.33,0,0,1,439,212.1a8.62,8.62,0,0,1,3.41,4,11.53,11.53,0,0,1,4-4,10.58,10.58,0,0,1,5.38-1.33,8.6,8.6,0,0,1,9.38,9.38v18Z"/><path class="cls-1" d="M470.11,193.35h4.48v23.3a10.86,10.86,0,0,1,4-4.43,10.68,10.68,0,0,1,5.69-1.49,11.47,11.47,0,0,1,9.08,3.87q3.39,3.87,3.39,10.36t-3.47,10.35a11.66,11.66,0,0,1-9.18,3.91,10.43,10.43,0,0,1-5.57-1.54,11.57,11.57,0,0,1-4.07-4.38v4.8h-4.3Zm4.3,31.67a10.33,10.33,0,0,0,2.37,7.22,8.35,8.35,0,0,0,6.5,2.59,7.78,7.78,0,0,0,6.33-2.75q2.29-2.76,2.3-7.64a9.61,9.61,0,0,0-2.26-6.78,8,8,0,0,0-6.23-2.46,8.43,8.43,0,0,0-6.52,2.7A10.08,10.08,0,0,0,474.41,225Z"/><path class="cls-1" d="M503.08,199a3.3,3.3,0,0,1,5.64-2.31,3.25,3.25,0,0,1,1,2.37,3.18,3.18,0,0,1-.95,2.31,3.21,3.21,0,0,1-2.34,1,3.26,3.26,0,0,1-2.36-1A3.2,3.2,0,0,1,503.08,199Zm1.07,39.15V211.68h4.56V238.1Z"/><path class="cls-1" d="M542.83,211.68V238.1h-4.39v-4.8a11.51,11.51,0,0,1-4.06,4.41,10.31,10.31,0,0,1-5.52,1.51,11.68,11.68,0,0,1-9.17-3.91q-3.48-3.92-3.48-10.35t3.38-10.38a11.4,11.4,0,0,1,9-3.85,10.82,10.82,0,0,1,5.75,1.49,10.64,10.64,0,0,1,3.94,4.43v-5Zm-4.39,13.45a10.38,10.38,0,0,0-2.44-7.2,9,9,0,0,0-12.72-.21,10,10,0,0,0-2.28,7q0,4.8,2.3,7.39a8.24,8.24,0,0,0,6.51,2.6,8.13,8.13,0,0,0,6.34-2.53Q538.44,229.67,538.44,225.13Z"/><path class="cls-1" d="M294.05,63c14.77.33,29.55-.87,44.3.83,24.38,2.8,36,13.41,39.92,37.49,2.34,14.39,1.91,28.75-2.85,42.76-4.28,12.62-13.21,20.33-25.67,24.1C337.08,172,324,172,310.88,172.12c-5.61,0-11.22.06-16.83.08Zm22.51,54.28c0,10.19.07,20.39,0,30.58,0,3.4,1.19,5,4.74,4.93,4.24-.14,8.51.15,12.74-.13,11.31-.76,17.8-5.2,20.27-15.29a80,80,0,0,0-.55-41.77c-2-6.8-6.76-10.76-13.61-12.39-6-1.44-12.18-.58-18.27-.92-4-.22-5.41,1.52-5.34,5.42C316.67,97.58,316.56,107.43,316.56,117.29Z"/><path class="cls-1" d="M551.22,198.74c0-23.81-.28-47.62,0-71.42C551.45,109.26,566.51,92.13,585,88c22.38-5,44.83,7.64,51.78,29.17a44,44,0,0,1-24.89,54.42c-14.68,6.14-27.07,2.21-35.58-11.27a4.09,4.09,0,0,0-2.66-1.9v40.33Zm65.4-68.06A21.44,21.44,0,0,0,595.11,109a21.94,21.94,0,1,0-.5,43.88C607.55,152.87,616.67,143.69,616.62,130.68Z"/><path class="cls-1" d="M712.56,158.76c-4.23,4.47-7.37,9.11-12.43,12-11.58,6.59-22.41,3.52-32.72-2.86-15.4-9.52-22.93-28.34-19-46.52a44.32,44.32,0,0,1,36-33.93,43.76,43.76,0,0,1,50.73,39.1c1.42,13.58.41,27.18.74,40.76.08,3.45-1.61,4.93-5,4.87-4.42-.08-8.85-.1-13.27,0-3.78.09-5.16-1.82-5-5.35C712.63,164.13,712.56,161.44,712.56,158.76Zm-43-27.74c0,12.48,9.45,21.83,22,21.81a21.62,21.62,0,0,0,21.9-22c-.05-12.29-9.69-21.8-22.16-21.86C679,108.89,669.54,118.51,669.56,131Z"/><path class="cls-1" d="M543.1,114.69c-.25,9.84.8,20.55-2.3,31.07-7.59,25.8-38.33,36.9-60,21.34-11.26-8.08-16.71-19.63-17.25-33.19-.54-13.41-.07-26.85-.19-40.28,0-3.65,1.28-5.33,5.05-5.17,4.07.16,8.17.19,12.23,0s5.35,1.61,5.3,5.46c-.13,11.9,0,23.8,0,35.69a35.92,35.92,0,0,0,1.16,9.58c2.37,8.77,7.6,12.78,16.61,12.69,8.49-.09,13.66-4.35,15.76-13.08a42.77,42.77,0,0,0,1.16-10.1c-.07-11.55.1-23.11-.09-34.67-.07-4.24,1.54-5.84,5.69-5.58a79.6,79.6,0,0,0,10.7,0c4.56-.34,6.5,1.28,6.27,6.06C542.86,100.94,543.1,107.41,543.1,114.69Z"/><path class="cls-1" d="M389,130.17q0-17.32,0-34.66c0-6.79.19-7,6.74-7,12.63-.1,12.63-.1,15.63,11.85.24,1,.11,2.27,1.36,2.44s1.63-1.05,2.26-1.82c5.74-7,12.34-12.63,21.74-13.94,5.26-.74,10.09.67,14.82,2.69,2.18.93,2.82,2.75,2.81,5,0,5.6-.05,11.21,0,16.82,0,3.12-.79,4-3.83,2.35a31.94,31.94,0,0,0-16.12-4c-13.48.19-22.9,9.58-22.93,23.16,0,10.88,0,21.75,0,32.62,0,6.27-.28,6.5-6.71,6.55-3.4,0-6.8-.14-10.19,0-4.23.21-5.69-1.77-5.64-5.83C389.09,154.3,389,142.24,389,130.17Z"/><path class="cls-1" d="M766.62,118.13c0,16-.13,31.94.08,47.9.06,4.64-1.5,6.22-6.16,6.24-16.42.06-16.42.2-16.42-16.29q0-43.06,0-86.12c0-6.7.19-6.85,6.84-6.89,2.55,0,5.1,0,7.65,0,8,0,8,0,8,7.77Q766.64,94.44,766.62,118.13Z"/><path class="cls-1" d="M777,74.61V66.05h-3.21V64.9h7.7v1.15h-3.21v8.56Z"/><path class="cls-1" d="M782.73,74.61V64.9h1.94l2.3,6.88c.21.64.36,1.12.46,1.43.11-.35.28-.87.52-1.55l2.32-6.76H792v9.71h-1.24V66.48l-2.82,8.13h-1.16L784,66.35v8.26Z"/><path class="cls-1" d="M301.34,35.64l-2.58,7.8h-3.31l8.42-24.79h3.87l8.46,24.79h-3.43l-2.64-7.8Zm8.13-2.5L307,26c-.55-1.61-.92-3.09-1.29-4.52h-.07c-.37,1.47-.78,3-1.25,4.49L302,33.14Z"/><path class="cls-1" d="M319.07,40.13a8.55,8.55,0,0,0,4.27,1.28c2.36,0,3.46-1.17,3.46-2.64s-.92-2.4-3.31-3.28c-3.2-1.14-4.71-2.9-4.71-5,0-2.86,2.32-5.22,6.14-5.22a9,9,0,0,1,4.38,1.1l-.81,2.36a7,7,0,0,0-3.64-1c-1.91,0-3,1.1-3,2.43s1.07,2.13,3.38,3c3.09,1.18,4.67,2.72,4.67,5.37,0,3.13-2.42,5.33-6.65,5.33a10.2,10.2,0,0,1-5-1.21Z"/><path class="cls-1" d="M350.2,34.39c0,6.58-4.56,9.45-8.87,9.45-4.81,0-8.53-3.53-8.53-9.16,0-5.95,3.9-9.45,8.83-9.45C346.74,25.23,350.2,28.94,350.2,34.39Zm-14.12.18c0,3.9,2.24,6.84,5.4,6.84s5.41-2.9,5.41-6.91c0-3-1.51-6.84-5.33-6.84S336.08,31.19,336.08,34.57Z"/><path class="cls-1" d="M367,42.77a11.81,11.81,0,0,1-5.12,1c-5.36,0-8.86-3.64-8.86-9.08s3.75-9.45,9.57-9.45a10.8,10.8,0,0,1,4.48.92l-.73,2.5a7.55,7.55,0,0,0-3.75-.85c-4.09,0-6.29,3-6.29,6.73,0,4.12,2.64,6.66,6.17,6.66a9.31,9.31,0,0,0,4-.88Z"/><path class="cls-1" d="M374.38,20.64a2,2,0,0,1-4,0,2,2,0,0,1,2-2A1.92,1.92,0,0,1,374.38,20.64Zm-3.6,22.8V25.64H374v17.8Z"/><path class="cls-1" d="M389.24,43.44,389,41.19h-.11a6.61,6.61,0,0,1-5.44,2.65A5.07,5.07,0,0,1,378,38.73c0-4.31,3.82-6.66,10.7-6.62v-.37c0-1.47-.4-4.12-4.05-4.12A9,9,0,0,0,380,28.94l-.74-2.13a11.15,11.15,0,0,1,5.85-1.58c5.44,0,6.77,3.71,6.77,7.28v6.66a25.29,25.29,0,0,0,.29,4.27Zm-.48-9.09c-3.53-.07-7.54.55-7.54,4a2.87,2.87,0,0,0,3.06,3.09,4.43,4.43,0,0,0,4.3-3,3.38,3.38,0,0,0,.18-1Z"/><path class="cls-1" d="M409.81,42.77a11.8,11.8,0,0,1-5.11,1c-5.37,0-8.87-3.64-8.87-9.08s3.75-9.45,9.57-9.45a10.8,10.8,0,0,1,4.48.92l-.73,2.5a7.52,7.52,0,0,0-3.75-.85c-4.09,0-6.29,3-6.29,6.73,0,4.12,2.64,6.66,6.18,6.66a9.29,9.29,0,0,0,4-.88Z"/><path class="cls-1" d="M417.21,20.64a2,2,0,0,1-4,0,2,2,0,0,1,2-2A1.92,1.92,0,0,1,417.21,20.64Zm-3.6,22.8V25.64h3.23v17.8Z"/><path class="cls-1" d="M438.32,34.39c0,6.58-4.56,9.45-8.86,9.45-4.82,0-8.53-3.53-8.53-9.16,0-5.95,3.9-9.45,8.82-9.45C434.87,25.23,438.32,28.94,438.32,34.39Zm-14.12.18c0,3.9,2.25,6.84,5.41,6.84s5.4-2.9,5.4-6.91c0-3-1.5-6.84-5.33-6.84S424.2,31.19,424.2,34.57ZM434.46,18,430,23.21h-2.32L430.9,18Z"/><path class="cls-1" d="M442.42,30.45c0-1.83,0-3.34-.15-4.81h2.87l.18,2.94h.07a6.57,6.57,0,0,1,5.89-3.35c2.46,0,6.29,1.47,6.29,7.58V43.44h-3.24V33.18c0-2.87-1.06-5.26-4.12-5.26a4.59,4.59,0,0,0-4.34,3.31,4.79,4.79,0,0,0-.22,1.5V43.44h-3.23Z"/></svg>